<svg width="592" height="274" viewBox="0 0 592 274" fill="none" xmlns="http://www.w3.org/2000/svg">
<path d="M15.7933 251.032C15.7933 255.082 16.2276 259.212 16.9293 262.609C17.2802 264.307 17.6998 265.831 18.1698 267.076C18.6348 268.307 19.1671 269.314 19.767 269.931C21.4622 271.674 24.2893 272.643 27.8648 272.977C31.4561 273.312 35.8854 273.015 40.8819 272.144C50.8778 270.403 63.2198 266.353 75.8202 260.369C133.2 233.116 204.308 170.972 242.055 115.101C262.667 84.5917 270.967 66.3077 273.383 45.9102C273.436 45.4653 273.486 45.0327 273.535 44.6119C273.981 40.8058 274.313 37.9653 275.032 35.6887C275.815 33.2058 277.052 31.4184 279.432 29.8478C281.845 28.2552 285.439 26.8811 290.959 25.284C295.916 23.8498 302.38 22.2477 310.867 20.1443C311.817 19.9089 312.792 19.6673 313.793 19.4189C354.47 9.32611 377.225 7.01796 396.647 10.937C406.27 12.8786 413.016 15.1397 417.348 17.9556C421.648 20.7503 423.54 24.0681 423.54 28.1886C423.54 28.8768 423.227 30.1221 422.588 31.8852C421.958 33.6249 421.036 35.8053 419.873 38.3309C417.548 43.3808 414.272 49.7834 410.474 56.75C402.878 70.6835 393.209 86.8466 384.918 98.9134C359.704 135.608 324.736 175.125 291.993 206.119C275.622 221.616 259.815 234.974 246.07 244.78C232.302 254.603 220.671 260.811 212.636 262.096C209.894 262.535 207.757 262.823 206.041 262.908C204.323 262.993 203.067 262.872 202.071 262.519C200.122 261.828 199.014 260.194 197.477 256.82C196.173 253.958 195.597 251.549 195.759 248.841C195.922 246.115 196.834 243.046 198.58 238.866C205.281 222.827 224.405 197.648 249.184 170.737C273.947 143.844 304.305 115.277 333.416 92.4665C351.693 78.1451 374.977 59.8733 385.159 51.8627C390.257 47.8516 394.494 44.1982 397.213 41.5413C398.567 40.2186 399.567 39.1205 400.105 38.338C400.241 38.1402 400.355 37.9526 400.438 37.779C400.518 37.6117 400.586 37.4251 400.599 37.2367C400.613 37.0359 400.563 36.7869 400.353 36.6037C400.164 36.4394 399.93 36.4054 399.753 36.4054C398.268 36.4054 396.386 36.865 394.177 37.7008C391.96 38.5399 389.378 39.7727 386.482 41.3522C380.689 44.5114 373.607 49.0763 365.63 54.7082C349.672 65.9733 330.094 81.5319 310.01 98.7175C269.851 133.08 227.61 173.997 208.222 200.151C198.449 213.335 192.492 222.206 188.983 229.761C185.462 237.341 184.411 243.588 184.411 251.507C184.411 258.183 186.431 263.689 190.094 267.53C193.759 271.373 199.022 273.5 205.407 273.5C209.143 273.5 214.895 272.111 221.691 269.811C228.506 267.506 236.425 264.265 244.522 260.519C260.709 253.031 277.654 243.505 287.924 235.364C294.664 230.023 303.616 223.449 307.811 220.76C310.028 219.338 316.002 214.41 323.699 207.804C331.414 201.182 340.897 192.842 350.157 184.563C359.417 176.285 368.455 168.066 375.28 161.689C378.692 158.5 381.553 155.77 383.613 153.721C384.643 152.697 385.476 151.84 386.079 151.178C386.38 150.848 386.628 150.562 386.815 150.327C386.993 150.103 387.146 149.888 387.225 149.71C387.276 149.593 387.416 149.357 387.663 148.993C387.903 148.638 388.226 148.188 388.624 147.654C389.419 146.585 390.504 145.19 391.801 143.565C394.396 140.317 397.832 136.161 401.483 131.883C411.758 119.845 421.357 103.988 428.66 87.9043C435.961 71.825 440.984 55.4792 442.075 42.4595C442.112 42.0214 442.148 41.5917 442.183 41.1702C442.635 35.7489 442.974 31.681 443.69 28.4926C444.456 25.081 445.643 22.7368 447.824 20.869C450.028 18.9811 453.293 17.5408 458.308 16.0481C462.952 14.6659 469.037 13.2549 477.078 11.3904C477.711 11.2436 478.357 11.094 479.014 10.9414C484.918 9.57102 489.655 8.71951 493.314 8.42019C496.996 8.119 499.498 8.38624 501 9.16654C501.734 9.54786 502.217 10.0455 502.496 10.6582C502.779 11.2779 502.875 12.0606 502.75 13.0406C502.498 15.0181 501.367 17.6664 499.365 21.057C497.899 23.5383 496.574 26.6896 495.616 29.7685C494.659 32.8412 494.053 35.8842 494.053 38.1451C494.053 43.0348 496.575 48.2053 500.154 52.1405C503.728 56.0701 508.451 58.8686 512.948 58.8686C514.331 58.8686 515.42 58.9839 516.221 59.2214C517.024 59.4594 517.47 59.7987 517.68 60.1969C517.889 60.5941 517.927 61.1707 517.641 62.0279C517.355 62.8843 516.766 63.9542 515.827 65.2708C512.06 70.5519 503.014 79.3275 487.462 93.257C460.189 117.684 425.794 154.331 401.869 184.451C396.117 191.693 389.285 203.135 383.893 213.783C381.195 219.11 378.853 224.248 377.183 228.575C375.523 232.876 374.497 236.447 374.495 238.604C374.49 244.092 376.513 251.017 379.396 257.024C380.84 260.032 382.508 262.827 384.262 265.111C386.01 267.388 387.867 269.19 389.7 270.171C394.028 272.488 400.4 272.655 408.603 270.812C411.725 270.111 416.85 268.031 423.156 265.044C429.475 262.05 437.019 258.126 444.996 253.711C460.949 244.881 478.653 234.076 491.776 224.796C499.361 219.432 512.81 210.105 521.66 204.071C529.351 198.827 534.648 193.884 536.886 190.203C537.988 188.392 538.451 186.714 537.821 185.446C537.179 184.152 535.561 183.581 533.282 183.581C533.063 183.581 532.806 183.638 532.538 183.718C532.261 183.801 531.935 183.922 531.567 184.075C530.83 184.381 529.896 184.828 528.793 185.397C526.585 186.536 523.673 188.18 520.266 190.204C513.449 194.252 504.629 199.834 495.448 205.972C473.365 220.737 451.947 234.319 435.396 244.209C427.12 249.154 420.066 253.173 414.756 255.954C412.1 257.345 409.888 258.423 408.181 259.152C407.327 259.516 406.607 259.79 406.025 259.972C405.433 260.158 405.022 260.235 404.773 260.235C402.955 260.235 401.604 260.014 400.665 259.572C399.754 259.143 399.225 258.507 399.014 257.606C398.794 256.669 398.907 255.4 399.417 253.713C399.924 252.035 400.808 249.995 402.071 247.544C405.768 240.367 415.514 225.184 426.215 209.478C436.912 193.779 448.537 177.596 455.981 168.426C463.229 159.497 476.473 142.533 485.414 130.725C501.513 109.463 531.173 75.6046 567.305 37.2483C578.108 25.7793 585.01 17.6773 588.558 12.0282C590.328 9.21075 591.304 6.9441 591.473 5.1389C591.559 4.22579 591.44 3.41341 591.099 2.70798C590.757 2.00129 590.209 1.43809 589.494 0.99652C588.824 0.582119 587.974 0.617229 587.104 0.89012C586.223 1.1664 585.229 1.71315 584.18 2.46667C582.076 3.97654 579.661 6.37918 577.349 9.36116C567.703 21.7993 556.235 32.7904 545.769 40.3098C540.535 44.07 535.565 46.9526 531.209 48.7163C526.836 50.4868 523.155 51.1 520.462 50.4239L513.788 48.7486L519.817 36.3138C524.229 27.2133 525.508 19.9855 523.297 14.3878C521.079 8.77091 515.424 4.97789 506.443 2.55932C492.229 -1.26858 477.145 0.197278 456.718 7.31462C448.305 10.2462 442.486 11.6514 437.216 11.5384C431.961 11.4257 427.201 9.80157 420.908 6.56566C412.55 2.26802 402.446 1.14453 373.455 1.14453C356.761 1.14453 346.769 1.38534 337.211 2.8203C327.651 4.25557 318.54 6.88305 303.605 11.6318L270.998 21.9994L263.862 14.2992C252.383 1.91087 234.578 -2.2006 213.508 2.51508C180.844 9.82595 144.389 27.9233 103.929 56.8773C92.3525 65.1615 68.7539 86.0842 47.3625 106.233C36.6623 116.312 26.5053 126.206 18.6691 134.241C14.7513 138.258 11.4104 141.814 8.8707 144.697C6.34372 147.566 4.57536 149.808 3.83916 151.184C2.66314 153.382 1.79341 155.215 1.2383 156.679C0.692672 158.118 0.418598 159.279 0.521518 160.092C0.575153 160.515 0.739546 160.907 1.08434 161.165C1.42384 161.418 1.84854 161.475 2.27917 161.428C3.11951 161.337 4.23967 160.824 5.60102 159.983C11.0849 156.594 21.6606 147.11 37.3948 131.533C89.6121 79.8347 144.207 39.5318 183.613 23.5459C200.626 16.6443 218.575 13.2926 232.237 13.4284C239.074 13.4964 244.794 14.4375 248.78 16.2116C252.761 17.9839 254.908 20.5286 254.884 23.7947C254.87 25.8207 253.858 29.2562 252.014 33.7115C250.181 38.1418 247.555 43.5106 244.379 49.3706C238.025 61.0899 229.482 74.7454 220.699 86.7402C197.589 118.301 166.046 155.58 137.467 186.316C123.178 201.683 109.635 215.41 98.2617 225.966C86.8695 236.539 77.7043 243.883 72.1578 246.54C69.4348 247.844 66.7553 249.359 64.6284 250.751C63.5653 251.447 62.6341 252.116 61.9023 252.717C61.1832 253.308 60.6152 253.865 60.3223 254.339C60.0549 254.772 59.5024 255.269 58.6602 255.804C57.829 256.331 56.7609 256.867 55.5175 257.391C53.0317 258.44 49.8882 259.428 46.638 260.217C43.3884 261.007 40.0477 261.594 37.1697 261.848C34.264 262.104 31.9167 262.01 30.5968 261.503C28.8525 260.834 27.658 259.726 26.9759 258.125C26.2852 256.504 26.1009 254.331 26.4879 251.511C27.2629 245.866 30.2979 237.832 35.7028 226.953C38.6356 221.05 44.3652 212.897 52.0284 203.417C59.6854 193.944 69.2526 183.172 79.8401 172.038C101.016 149.767 126.257 126.063 148.433 108.423C156.444 102.05 163.9 96.0108 169.46 91.4151C172.239 89.1175 174.546 87.1791 176.213 85.7394C177.045 85.0198 177.721 84.4225 178.216 83.9662C178.691 83.5275 179.045 83.1797 179.188 82.9774C179.447 82.6098 180.101 82.0023 181.151 81.1799C182.183 80.3713 183.55 79.3905 185.183 78.2795C188.448 76.0583 192.759 73.3302 197.544 70.4412C207.113 64.6625 218.556 58.2528 227.285 53.9809C231.736 51.8025 235.79 49.3005 238.738 47.0181C240.211 45.8779 241.421 44.7825 242.269 43.8002C242.692 43.3091 243.034 42.8357 243.273 42.39C243.508 41.9489 243.66 41.5021 243.66 41.0733C243.66 40.2106 243.54 39.4638 243.245 38.8631C242.942 38.2453 242.465 37.8068 241.816 37.5622C241.185 37.3245 240.42 37.2805 239.538 37.3799C238.653 37.4798 237.613 37.7285 236.411 38.1101C232.195 39.4482 223.456 43.9928 214.204 49.3846C204.936 54.7859 195.091 61.0753 188.646 65.9374C185.972 67.9553 183.324 69.7876 181.215 71.1133C180.16 71.7766 179.247 72.3089 178.536 72.6735C178.18 72.8561 177.883 72.9926 177.649 73.0822C177.398 73.1781 177.272 73.1994 177.237 73.1994C176.939 73.1994 176.585 73.2901 176.21 73.4245C175.824 73.5626 175.371 73.7632 174.863 74.0171C173.844 74.5252 172.567 75.2632 171.084 76.19C168.117 78.0447 164.296 80.6754 160.023 83.7875C151.478 90.0125 141.104 98.1808 132.104 105.96C122.638 114.142 107.732 126.354 98.9859 133.094C77.974 149.284 46.4027 185.946 29.4498 213.825C23.9274 222.907 20.509 229.21 18.4752 234.742C16.4348 240.292 15.7933 245.05 15.7933 251.032Z" fill="white" stroke="white"/>
</svg>
